<svg xmlns="http://www.w3.org/2000/svg" viewBox="0 0 192 192" width="48" height="48" fill="none">
  <path d="M96.4 102.8v61.3M36.29 110v18.56a14.06 14.06 0 0 0 8.06 12.72L90 162.85a13.992 13.992 0 0 0 12 0l45.6-21.6a14.065 14.065 0 0 0 8.05-12.72v-18.85" stroke="#0D0D0D" stroke-width="8" stroke-linecap="round" stroke-linejoin="round"/>
  <path d="M36.29 74.56 24.47 92.28a8.82 8.82 0 0 0 2.47 12.22c.349.228.713.432 1.09.61l43.71 20.64a8.854 8.854 0 0 0 11.09-3.11l13.56-19.89-60.1-28.19ZM120.41 125.74 164 105.16a8.816 8.816 0 0 0 4.523-4.992 8.809 8.809 0 0 0-.333-6.728 8.398 8.398 0 0 0-.63-1.13L155.7 74.59l-59.32 28.19 12.93 19.9a8.862 8.862 0 0 0 11.1 3.06ZM36.28 74.54 97 45.91 86.39 35.78a16.54 16.54 0 0 0-18.55-3.05l-35.9 16.91a10.37 10.37 0 0 0-3.35 16.25l7.68 8.65h.01Z" stroke="#E60000" stroke-width="8" stroke-linecap="round" stroke-linejoin="round"/>
  <path d="m155.74 74.54 8-8.83a10.338 10.338 0 0 0 2.32-4.165 10.342 10.342 0 0 0-1.758-9.11 10.333 10.333 0 0 0-3.702-3.005l-34.19-16.6a16.57 16.57 0 0 0-18.57 2.82l-10.9 10.24 58.8 28.65Z" stroke="#E60000" stroke-width="8" stroke-linecap="round" stroke-linejoin="round"/>
</svg>
