<svg xmlns="http://www.w3.org/2000/svg" viewBox="0 0 192 192" width="48" height="48" fill="none">
  <path d="M124.69 124h-23.37M116 60h22.13A33.88 33.88 0 0 1 172 93.86V112c0 3.183-1.264 6.235-3.515 8.485A11.996 11.996 0 0 1 160 124h-12.69" stroke="#0D0D0D" stroke-width="8" stroke-linejoin="round"/>
  <path d="M116 44v80H59.31a12.002 12.002 0 0 0-18.234-5.791A12.003 12.003 0 0 0 36.69 124 17.291 17.291 0 0 1 20 106.7V60a16 16 0 0 1 16-16h80Z" stroke="#0D0D0D" stroke-width="8" stroke-miterlimit="10"/>
  <path d="M60 128a12 12 0 0 1-24 0c-.003-1.363.23-2.717.69-4a12.002 12.002 0 0 1 18.234-5.791A12.002 12.002 0 0 1 59.31 124c.46 1.283.693 2.637.69 4ZM148 128a11.998 11.998 0 0 1-12 12 11.998 11.998 0 0 1-12-12 11.801 11.801 0 0 1 .69-4 12.005 12.005 0 0 1 11.31-7.99 12.005 12.005 0 0 1 11.31 7.99c.459 1.283.693 2.637.69 4Z" stroke="#E60000" stroke-width="8" stroke-linejoin="round"/>
</svg>
